<?xml version="1.0" encoding="UTF-8"?>
<svg id="Capa_1" data-name="Capa 1" xmlns="http://www.w3.org/2000/svg" viewBox="0 0 182.21 401.88">
  <defs>
    <style>
      .cls-1 {
        fill: #fff;
        stroke-width: 0px;
      }
    </style>
  </defs>
  <path class="cls-1" d="M182.04,142.27c0,18.16-.54,36.33.11,54.46,1.42,39.54-25.23,68.75-57.27,77.32-29.5,7.89-59.26,7.99-86.58-8.41C13.48,250.75.25,228.63.28,199.19c.04-36.31.96-72.65-.23-108.92C-1.5,43.11,32.58,10.52,71.14,2.13c41.84-9.1,86.17,11.6,103.56,48.81,4.94,10.57,7.34,21.7,7.34,33.37,0,19.32,0,38.64,0,57.96ZM86.29,17.02c-1.16-.17-1.65-.34-2.12-.31C49.52,19.4,15.72,46.66,16.32,86.65c.55,36.98.26,73.98.07,110.96-.14,28.07,13.58,46.83,38.29,58.43,16.69,7.84,34.57,7.08,52.1,5.47,31.03-2.86,60.39-27.38,59.34-65.19-1.01-36.29-.31-72.64-.19-108.96.1-30.19-14.88-50.61-41.07-63.68-8.81-4.39-18.31-6.69-28.82-6.98,0,5.21.07,10-.03,14.79-.06,2.77.71,4.56,2.95,6.69,2.5,2.39,4.68,6.37,4.83,9.75.56,12.47.57,25,0,37.47-.15,3.38-2.38,7.29-4.86,9.76-2.16,2.15-2.95,3.92-2.94,6.74.08,22.49.04,44.99.04,67.48,0,2.17.61,4.61-.2,6.42-.86,1.91-3.09,4.48-4.68,4.45-1.64-.03-3.42-2.7-4.74-4.51-.56-.76-.11-2.26-.11-3.43,0-23.49.05-46.99-.08-70.48-.01-1.89-.61-4.53-1.93-5.54-4.41-3.4-6.01-7.69-5.96-13.04.1-11.33.14-22.66,0-33.99-.06-5.1,1.78-8.97,5.81-12.03,1.01-.77,2.01-2.25,2.06-3.45.22-5.46.1-10.94.1-16.75Z"/>
  <path class="cls-1" d="M90.91,326.11c10.47-10.57,20.65-20.86,30.83-31.14,1.05-1.06,2.08-2.16,3.21-3.14,3.86-3.38,8.32-3.4,11.63-.11,3.24,3.23,3.26,7.85-.39,11.58-9.08,9.29-18.3,18.44-27.48,27.63-3.88,3.89-7.74,7.81-11.73,11.58-4.37,4.12-8.3,4.12-12.64-.17-12.67-12.51-25.27-25.09-37.82-37.72-3.92-3.95-4.11-8.6-.82-12,3.37-3.48,8.33-3.31,12.39.7,10.77,10.65,21.45,21.4,32.82,32.77Z"/>
  <path class="cls-1" d="M90.91,382.41c10.47-10.57,20.65-20.86,30.83-31.14,1.05-1.06,2.08-2.16,3.21-3.14,3.86-3.38,8.32-3.4,11.63-.11,3.24,3.23,3.26,7.85-.39,11.58-9.08,9.29-18.3,18.44-27.48,27.63-3.88,3.89-7.74,7.81-11.73,11.58-4.37,4.12-8.3,4.12-12.64-.17-12.67-12.51-25.27-25.09-37.82-37.72-3.92-3.95-4.11-8.6-.82-12,3.37-3.48,8.33-3.31,12.39.7,10.77,10.65,21.45,21.4,32.82,32.77Z"/>
</svg>